<svg width="64" height="64" viewBox="0 0 64 64" fill="none" xmlns="http://www.w3.org/2000/svg">
  <rect width="64" height="64" rx="16" fill="#1E120B"/>
  <rect x="6" y="6" width="52" height="52" rx="12" stroke="#C38A3A" stroke-width="2"/>
  <path d="M22 24C22 21.7909 23.7909 20 26 20H38C40.2091 20 42 21.7909 42 24V27H22V24Z" fill="#5C3A20"/>
  <rect x="18" y="27" width="28" height="20" rx="4" fill="#7A4D2A"/>
  <path d="M30.0577 42V39.7656H28.5938V38.6745H30.0577V37.9332C30.0577 37.2188 30.2433 36.6 30.6144 36.0768C30.9899 35.5491 31.5765 35.1953 32.3743 35.0156L33.2221 34.8281L33.5346 35.9883L32.8158 36.1523C32.3947 36.2487 32.0985 36.4208 31.9272 36.6686C31.7558 36.9164 31.6701 37.2513 31.6701 37.6732V38.6745H33.9017V39.7656H31.6701V42H30.0577ZM35.0592 36.9531H33.3004V35.6979H35.0592V36.9531Z" fill="#F6E4C8"/>
  <circle cx="48" cy="16" r="5" fill="#C38A3A"/>
  <path d="M48 12.8L48.7 14.3L50.3 14.5L49.1 15.6L49.4 17.2L48 16.4L46.6 17.2L46.9 15.6L45.7 14.5L47.3 14.3L48 12.8Z" fill="#1E120B"/>
</svg>
